<?xml version="1.0" encoding="UTF-8"?>
<svg id="Layer_1" data-name="Layer 1" xmlns="http://www.w3.org/2000/svg" viewBox="0 0 45 42.09">
  <defs>
    <style>
      .cls-1, .cls-2 {
        stroke-width: 0px;
      }

      .cls-2 {
        fill: #fff;
      }
    </style>
  </defs>
  <path class="cls-2" d="m0,0c14.99,0,29.99,0,44.99,0,0,14.02,0,28.05,0,42.09-14.99,0-29.99,0-45,0C0,28.07,0,14.04,0,0Zm39.62,39.63c.24-.41.47-.82.71-1.23-2.78-3.65-5.41-7.43-8.38-10.91-3.88-4.54-4.02-7.46-.04-11.92.26-.29.71-.43.93-.74,2.51-3.6,4.98-7.21,7.58-10.99-6.47-1.62-10.88-.41-13.52,5.33-.92,1.99-2.51,3.67-3.88,5.63-2.2-2.58-4.1-4.52-5.67-6.69-3.85-5.34-5.53-5.98-12.42-4.06,2.32,3.22,4.68,6.3,6.83,9.52,5.28,7.87,5.28,7.92.09,15.66-2.21,3.3-4.63,6.45-7.08,9.85,5.87,1.47,10.23.83,13.04-4.8,1.13-2.26,3.4-3.95,5.33-6.09,2.33,3.39,4.36,6.47,6.53,9.45,2.8,3.85,6.64,1.21,9.95,2Z"/>
  <path class="cls-1" d="m39.62,39.64c-3.3-.78-7.14,1.85-9.95-2-2.17-2.98-4.2-6.06-6.53-9.45-1.93,2.14-4.2,3.83-5.33,6.09-2.81,5.63-7.17,6.27-13.04,4.8,2.45-3.4,4.87-6.56,7.08-9.85,5.2-7.74,5.19-7.79-.09-15.66-2.16-3.22-4.51-6.3-6.83-9.52,6.89-1.91,8.56-1.27,12.42,4.06,1.57,2.18,3.47,4.12,5.67,6.69,1.38-1.96,2.96-3.64,3.88-5.63,2.64-5.74,7.06-6.95,13.52-5.33-2.6,3.78-5.08,7.4-7.58,10.99-.22.31-.67.45-.93.74-3.98,4.46-3.84,7.38.04,11.92,2.97,3.48,5.6,7.26,8.38,10.91-.24.41-.47.82-.71,1.23Zm-1.92-1.86c-3.43-4.71-6.41-9.04-9.66-13.15-1.87-2.36-1.66-4.19.1-6.46,3.21-4.13,6.19-8.43,9.36-12.79-4.05-1.23-6.39-.02-8.22,3.21-1.77,3.12-4.07,5.94-6.38,9.24-2.96-3.81-5.65-6.87-7.88-10.25-1.69-2.57-3.55-3.24-6.3-2.23.14.48.16.77.3.98,2.1,3.21,4.2,6.41,6.32,9.6q3.65,5.52-.11,11.19c-2.27,3.44-4.53,6.88-6.87,10.43,3.6,1.11,5.35-.23,6.99-2.68,2.21-3.3,4.88-6.3,7.03-9.01,6.06,3.06,5.38,13.29,15.29,11.91Z"/>
  <path class="cls-2" d="m37.69,37.78c-9.91,1.38-9.24-8.85-15.29-11.91-2.15,2.72-4.82,5.71-7.03,9.01-1.64,2.45-3.39,3.8-6.99,2.68,2.34-3.55,4.6-6.99,6.87-10.43q3.75-5.68.11-11.19c-2.11-3.2-4.22-6.39-6.32-9.6-.14-.21-.16-.51-.3-.98,2.75-1.01,4.61-.34,6.3,2.23,2.22,3.38,4.91,6.44,7.88,10.25,2.31-3.3,4.61-6.11,6.38-9.24,1.83-3.23,4.17-4.44,8.22-3.21-3.17,4.36-6.16,8.66-9.36,12.79-1.76,2.26-1.97,4.09-.1,6.46,3.25,4.11,6.22,8.44,9.66,13.15Z"/>
</svg>