<?xml version="1.0" encoding="UTF-8"?>
<svg id="Layer_1" data-name="Layer 1" xmlns="http://www.w3.org/2000/svg" viewBox="0 0 100 100">
  <defs>
    <style>
      .cls-1, .cls-2 {
        stroke-width: 0px;
      }

      .cls-2 {
        fill: #fcfcfc;
      }
    </style>
  </defs>
  <g>
    <path class="cls-1" d="m58.13,57.87H12.34v-15.7h46.01c.19-.41.38-.82.58-1.23-3.82-3.34-7.63-6.67-11.33-9.91,4.02-4.08,7.24-7.36,10.32-10.49,9.73,9.88,19.6,19.9,29.21,29.67-9.37,9.32-19.26,19.16-29.2,29.04-2.77-2.84-6.05-6.2-10.88-11.15,3.79-2.81,7.95-5.9,12.1-8.98-.34-.42-.68-.84-1.02-1.25Zm-.58,18.53c9.06-9.03,18.09-18.02,26.33-26.23-8.63-8.61-17.65-17.61-26.03-25.96-2,1.63-4.55,3.7-7.09,5.76-.54.78-1.07,1.56-1.61,2.34,4.65,3.56,9.3,7.12,13.95,10.68-.22.39-.44.78-.66,1.17H14.26v12h48.41c.31.5.61,1,.92,1.5-4.56,3.74-9.11,7.48-14.01,11.51,3.63,3.29,5.95,5.39,7.98,7.22Z"/>
    <path class="cls-1" d="m75.61,55.45c-5.35,5.37-10.71,10.74-16.06,16.11.15.16.3.31.45.47,5.39-5.4,10.78-10.8,16.17-16.21-.19-.12-.37-.25-.56-.37Z"/>
    <path class="cls-1" d="m78.68,48.75c-5.35,5.37-10.71,10.74-16.06,16.11.15.16.3.31.45.47,5.39-5.4,10.78-10.8,16.17-16.21-.19-.12-.37-.25-.56-.37Z"/>
  </g>
  <polygon class="cls-2" points="57.41 18.44 88.12 50 84.71 49.96 57.35 22.34 57.41 18.44"/>
  <polygon class="cls-2" points="57.38 81.77 88.24 50.07 84.85 50.09 57.35 77.82 57.38 81.77"/>
</svg>